<?xml version="1.0" encoding="UTF-8"?>
<svg viewBox="706 81 4400 4400" xmlns="http://www.w3.org/2000/svg">
  <rect x="706" y="81" width="4400" height="4400" rx="980" fill="#F5F2E7"/>
  <g transform="matrix(24.0489,0,0,24.0489,-1408.27,-13596.5)">
    <g fill="#183219">
      <path d="M205.816,592.379C208.346,596.17 208.963,599.764 206.158,603.229C203.247,606.822 199.262,608.269 194.727,607.973C193.478,607.892 192.142,607.268 191.077,606.55C186.183,603.249 187.431,596.966 190.077,591.153C191.976,586.984 197.228,586.273 201.701,589.026C203.093,589.884 204.291,591.057 205.816,592.379Z"/>
      <path d="M240.573,609.986C242.346,618.448 235.312,625.02 227.36,622.857C222.77,621.609 220.411,617.456 221.727,612.882C222.139,611.45 222.584,610.022 223.117,608.632C225.357,602.785 230.321,601.243 235.403,604.861C237.283,606.199 239.261,607.485 240.573,609.986Z"/>
      <path d="M130.528,599.364C138.427,595.456 144.311,597.289 146.024,603.883C147.346,608.969 145.312,613.707 140.992,615.604C136.735,617.474 130.847,615.822 128.023,611.965C125.287,608.228 126.054,603.884 130.528,599.364Z"/>
      <path d="M114.824,646.174C110.862,647.475 107.515,647.281 104.802,644.361C101.973,641.318 103.159,638.247 104.957,635.227C105.125,634.944 105.309,634.622 105.329,634.309C105.62,629.811 107.202,626.542 112.446,626.632C116.771,626.707 121.014,630.453 121.991,635.425C122.918,640.145 120.899,643.477 116.575,645.465C116.122,645.673 115.664,645.868 114.824,646.174Z"/>
      <path d="M182.206,739.112C177.319,738.117 174.172,735.693 173.549,730.934C173.105,727.545 174.366,724.673 177.269,722.759C180.732,720.474 184.369,719.993 188.061,722.281C191.394,724.347 192.892,727.411 192.042,731.207C190.943,736.114 187.923,739.083 182.206,739.112Z"/>
      <path d="M212.643,713.493C217.912,711.741 222.688,712.952 224.831,716.587C226.972,720.219 227.2,723.844 223.734,726.936C219.581,730.642 213.713,731.474 210.479,728.883C207.245,726.292 206.532,721.115 208.786,717.069C209.629,715.557 210.834,714.488 212.643,713.493Z"/>
      <path d="M156.297,643.821C153.816,647.65 150.766,649.672 146.452,648.609C142.867,647.725 139.959,645.758 139.061,641.963C138.171,638.194 139.755,635.07 142.604,632.688C145.928,629.908 149.751,629.744 153.251,632.057C157.397,634.797 158.267,638.841 156.297,643.821Z"/>
      <path d="M120.143,691.801C124.29,690.112 127.775,690.838 130.6,693.574C132.844,695.746 133.832,698.62 132.693,701.77C131.327,705.55 129.219,708.813 124.663,708.691C120.42,708.576 116.795,706.817 115.465,702.435C114.099,697.938 115.609,694.321 120.143,691.801Z"/>
      <path d="M246.194,693.159C248.428,698.08 246.407,701.606 243.251,704.62C240.803,706.957 237.801,706.784 234.878,705.449C229.924,703.187 228.094,698.526 230.304,693.985C232.555,689.359 237.822,687.661 242.554,690.023C243.912,690.7 245.135,691.527 246.194,693.159Z"/>
      <path d="M175.269,621.81C171.284,626.16 166.322,626.914 162.796,624.042C159.225,621.133 158.718,615.629 161.632,611.42C164.08,607.885 168.772,606.888 172.67,609.075C176.402,611.167 177.315,615.213 175.269,621.81Z"/>
      <path d="M150.923,714.578C152.136,715.544 153.212,716.178 153.811,717.117C156.141,720.768 156.84,724.554 153.671,728.111C150.674,731.476 147.119,731.534 143.286,729.529C139.108,727.343 137.73,723.833 138.908,719.512C140.078,715.218 143.446,713.606 147.693,713.72C148.656,713.746 149.609,714.154 150.923,714.578Z"/>
      <path d="M220.434,634.359C226.388,632.971 229.901,634.255 231.623,638.356C233.256,642.248 232.834,646.096 229.547,648.796C226.276,651.483 222.333,651.305 218.915,648.855C215.254,646.231 215.172,642.511 216.624,638.573C217.287,636.777 218.385,635.401 220.434,634.359Z"/>
      <path d="M125.11,665.664C125.117,661.039 126.8,657.839 131.032,656.49C134.096,655.513 137.12,655.89 139.381,658.255C141.798,660.785 142.882,663.859 141.636,667.442C140.355,671.128 137.452,672.699 133.943,672.732C129.515,672.773 126.337,670.587 125.11,665.664Z"/>
      <path d="M168.37,583.572C172.098,586.503 173.22,589.947 171.167,593.883C169.258,597.543 166.162,599.795 161.818,599.073C157.854,598.414 155.821,595.592 155.401,591.772C154.659,585.028 160.372,581.297 168.37,583.572Z"/>
      <path d="M238.966,666.198C242.176,660.99 246.164,659.556 250.264,661.824C253.861,663.814 255.386,668.621 253.712,672.696C252.078,676.674 247.225,678.566 242.768,676.964C238.987,675.605 237.591,671.923 238.966,666.198Z"/>
      <path d="M106.876,680.269C100.567,676.081 100.126,668.375 105.698,665.679C108.898,664.13 112.004,664.593 114.402,667.054C116.824,669.54 117.971,672.586 116.172,676.103C114.263,679.835 111.441,681.505 106.876,680.269Z"/>
      <path d="M251.125,649.742C248.913,649.401 247.193,648.835 245.925,647.387C243.476,644.592 243.094,641.494 244.758,638.185C246.377,634.962 249.235,633.749 252.584,634.163C256.475,634.644 257.923,637.649 258.662,641.098C259.436,644.714 257.738,647.188 254.827,648.931C253.886,649.494 252.62,649.515 251.125,649.742Z"/>
      <path d="M171.827,713.584C167.388,713.542 164.811,711.468 164.078,707.543C163.528,704.602 164.441,701.902 167.027,700.111C169.822,698.175 172.68,698.523 175.439,700.273C178.015,701.908 178.688,704.429 178.273,707.226C177.759,710.696 175.78,712.941 171.827,713.584Z"/>
    </g>
    <g fill="#FF7E00">
      <path d="M151.691,674.123C153.634,667.558 157.283,664.648 163.134,664.605C168.922,664.563 174.077,668.448 175.719,674.09C177.071,678.737 174.756,684.241 170.123,687.396C162.94,692.287 154.312,690.571 151.377,683.811C149.976,680.584 151.371,677.618 151.691,674.123Z"/>
      <path d="M196.225,681.685C203.638,682.009 208.473,686.429 208.016,692.056C207.556,697.711 202.1,701.894 195.974,701.289C191.026,700.801 187.46,697.138 187.076,692.148C186.717,687.492 190.142,683.396 196.225,681.685Z"/>
      <path d="M223.453,663.726C226.17,670.746 224.202,675.97 218.517,677.131C214.098,678.033 210.128,677.106 207.807,672.773C205.708,668.856 206.842,665.17 209.638,662.201C212.827,658.815 216.798,659.09 220.676,661.091C221.665,661.601 222.397,662.609 223.453,663.726Z"/>
      <path d="M204.623,627.819C205.98,632.708 204.442,636.05 200.312,638.111C196.798,639.864 193.315,639.405 190.663,636.603C187.492,633.251 188.192,629.185 189.858,625.377C191.124,622.483 193.833,621.3 196.804,621.366C200.742,621.453 203.205,623.789 204.623,627.819Z"/>
      <path d="M184.155,660.018C184.787,655.837 186.978,653.773 190.86,653.6C193.98,653.461 195.819,655.23 196.827,657.912C197.97,660.954 196.879,663.474 194.405,665.341C190.482,668.301 185.906,666.06 184.155,660.018Z"/>
      <path d="M169.791,645.052C170.51,641.052 172.642,638.985 176.343,639.488C179.148,639.868 181.158,641.553 181.257,644.75C181.36,648.087 179.581,650.137 176.505,650.701C172.535,651.429 170.289,649.423 169.791,645.052Z"/>
    </g>
  </g>
</svg>
